PathFileType	4	(X/Y/Z)	/Users/niels/Desktop/University/Third Semester/Perception and Action/Exam/Gymnastics Motion Tracking/Code for Gym Tracking/Analyzed Data/Webcam_Backflip/id7_5_trajectory_Sports2D/id7_5_trajectory_Sports2D_px_person00.trc
DataRate	CameraRate	NumFrames	NumMarkers	Units	OrigDataRate	OrigDataStartFrame	OrigNumFrames
29.81132075471698	29.81132075471698	12	22	m	29.81132075471698	139	159
Frame#	Time	Hip			RHip			RKnee			RAnkle			RBigToe			RSmallToe			RHeel			LHip			LKnee			LAnkle			LBigToe			LSmallToe			LHeel			Neck			Head			Nose			RShoulder			RElbow			RWrist			LShoulder			LElbow			LWrist		
		X1	Y1	Z1	X2	Y2	Z2	X3	Y3	Z3	X4	Y4	Z4	X5	Y5	Z5	X6	Y6	Z6	X7	Y7	Z7	X8	Y8	Z8	X9	Y9	Z9	X10	Y10	Z10	X11	Y11	Z11	X12	Y12	Z12	X13	Y13	Z13	X14	Y14	Z14	X15	Y15	Z15	X16	Y16	Z16	X17	Y17	Z17	X18	Y18	Z18	X19	Y19	Z19	X20	Y20	Z20	X21	Y21	Z21	X22	Y22	Z22
139	4.662658227848101	1.0242677859422957	-0.5371051302520469	0.0	0.9768579772317242	-0.5360321646667527	0.0	0.9920253409431725	-0.733706270926758	0.0	0.9913062631753263	-0.8912785805140534	0.0	1.0107048469710993	-0.9474572307177567	0.0	0.9842630258153523	-0.9402408701549874	0.0	0.9888375274036827	-0.902769978398422	0.0	1.0683780856159653	-0.5372314001603598	0.0	1.0553199937082778	-0.7352542241922374	0.0	1.0553281831469958	-0.9261611734559907	0.0	1.0479996974641248	-0.9812132188608687	0.0	1.072538207622219	-0.974985532424524	0.0	1.0519399823720335	-0.9442515476199546	0.0	1.0292602492273402	-0.27512803307511824	0.0	1.0341876247798558	-0.16384723039961172	0.0	1.045681448675717	-0.22001713686553023	0.0	0.9496184702041292	-0.3130904578375213	0.0	0.912748766388138	-0.4271215984763474	0.0	0.8606182536466906	-0.5223677216269551	0.0	1.1028641081594033	-0.3171897186872161	0.0	1.1345572905318155	-0.4349040362853077	0.0	1.1946074644266333	-0.5411683909231989	0.0
140	4.69620253164557	1.023467804994007	-0.5389421564320077	0.0	0.9753168329778225	-0.5381029345824875	0.0	0.9918230296350803	-0.7379362660917194	0.0	0.9915373208051254	-0.8895073291273137	0.0	1.0119820569996731	-0.9495943864284374	0.0	0.9849638476804283	-0.940672854220047	0.0	0.9886922984939603	-0.899168716496945	0.0	1.0678799550304612	-0.5389371090595546	0.0	1.052605868017697	-0.7405577725637746	0.0	1.0540795790179331	-0.9431002278576606	0.0	1.0452528736915088	-0.9984932832733326	0.0	1.0706973109330675	-0.992678426333253	0.0	1.0508697006148524	-0.9623926051524561	0.0	1.0290939143113913	-0.27417005211541307	0.0	1.0351723852519545	-0.16138760299189536	0.0	1.047333740975454	-0.21849264016455133	0.0	0.9479892714248034	-0.31214688954156405	0.0	0.9097388515650179	-0.42657072178674366	0.0	0.8579177640215019	-0.5204464330075055	0.0	1.1028366934921496	-0.3166914894716965	0.0	1.1396568922621229	-0.4329034101938385	0.0	1.2053347971729813	-0.534399228989505	0.0
141	4.729746835443038	1.0230126147208822	-0.5399384082835014	0.0	0.9741750444167611	-0.5393758446896806	0.0	0.9914727005824997	-0.7423956535796002	0.0	0.9919603836477724	-0.8870042529377326	0.0	1.0126892186543668	-0.9513650729187451	0.0	0.984983597193992	-0.9407668086922293	0.0	0.9888588467071645	-0.8947194653870442	0.0	1.067739156130044	-0.5395032139614879	0.0	1.0510806684017635	-0.7451078534905027	0.0	1.0531076107756372	-0.9551713341732673	0.0	1.0431272119188701	-1.0118276047400365	0.0	1.0697245529693136	-1.0060638738993433	0.0	1.0501335225416615	-0.9755282785086963	0.0	1.0296484019304495	-0.2725150730955747	0.0	1.0370957586846297	-0.15806218511358527	0.0	1.049667593849797	-0.2161915364665985	0.0	0.9471425677608425	-0.310969748195012	0.0	0.9084753566314756	-0.42648167972289414	0.0	0.8578274851951654	-0.5206538497953466	0.0	1.1035150478591926	-0.31581857824295945	0.0	1.1433782836724782	-0.4311275217330699	0.0	1.2126082709439583	-0.5282326946542377	0.0
142	4.763291139240506	1.022898626957715	-0.5397873191442805	0.0	0.9733757515012711	-0.5395306302871766	0.0	0.9908513543065027	-0.7469629267159282	0.0	0.9924656306753362	-0.8841371487171865	0.0	1.0127546709431845	-0.952750007638298	0.0	0.9843336015055363	-0.9406287854417354	0.0	0.9892078908082972	-0.8899802349695437	0.0	1.068106800641175	-0.5387343207523038	0.0	1.0507875707682113	-0.7482745393412826	0.0	1.0522976529161738	-0.9625952261948717	0.0	1.0415036221819152	-1.0210505530232468	0.0	1.0693476020158723	-1.0150190127737675	0.0	1.0495566920549286	-0.9838314411480635	0.0	1.030790019123677	-0.2697861831808163	0.0	1.039791476904532	-0.1537127456907283	0.0	1.052518488969066	-0.21282476012551915	0.0	0.9468067301328246	-0.3091058514406392	0.0	0.9088589898171471	-0.42647178751794185	0.0	0.8602679686908755	-0.5225879048250568	0.0	1.104890925643876	-0.3142175591204072	0.0	1.145557211397131	-0.4295800214932675	0.0	1.2164600393039473	-0.5236935545746858	0.0
143	4.796835443037974	1.0230444234651013	-0.538420791972377	0.0	0.972849628698565	-0.5384424475142029	0.0	0.9895733995421089	-0.7514189045294148	0.0	0.9928163695252211	-0.8812391027037362	0.0	1.0120583221463022	-0.9538950823437888	0.0	0.9831010841267215	-0.9404792133006912	0.0	0.9895730408429007	-0.8854788642574851	0.0	1.069027708378597	-0.536766361603649	0.0	1.051567192418793	-0.7499364520128167	0.0	1.0517683310196932	-0.9663912036537612	0.0	1.040348348468052	-1.0266208988233458	0.0	1.0693332275421756	-1.0201654054438607	0.0	1.049246237130404	-0.988315692892057	0.0	1.0321809587889326	-0.26578029086312016	0.0	1.0427934239780325	-0.14832870988890817	0.0	1.055609362340007	-0.20831609279814053	0.0	0.9466587256613802	-0.3062138233725947	0.0	0.9106479450261981	-0.42614874523827845	0.0	0.8649326877336665	-0.5255625651337976	0.0	1.1068014581264858	-0.3115518694777465	0.0	1.14630133998079	-0.4281781067581816	0.0	1.2170351228727485	-0.5216743403861543	0.0
144	4.830379746835443	1.0233518580269816	-0.5361103328736808	0.0	0.9725456002290487	-0.5364022124919086	0.0	0.987115036351171	-0.7554755368186847	0.0	0.9926180513052473	-0.8787422222556506	0.0	1.0102578588075157	-0.9551799629415281	0.0	0.9811646465413072	-0.9407498383070926	0.0	0.9897106853780842	-0.8818281238712937	0.0	1.0704115906160978	-0.5341174930627987	0.0	1.0530936410003964	-0.7506083290526617	0.0	1.051611214680201	-0.9680083161278512	0.0	1.0395178211317235	-1.0293953421968807	0.0	1.0693921854296458	-1.022642323557835	0.0	1.0493164652748643	-0.9904114176278331	0.0	1.0334283713472214	-0.2606908832677918	0.0	1.045481168694047	-0.14211419149811763	0.0	1.0585208462658062	-0.20285890558186817	0.0	0.9464437146300404	-0.3023174647977013	0.0	0.9133874385527214	-0.42535534843880757	0.0	0.8711334245534138	-0.5290300115630753	0.0	1.1089091635745039	-0.30771245039542366	0.0	1.145833295493252	-0.42693423226995303	0.0	1.2146359887385603	-0.5227329725791205	0.0
145	4.863924050632911	1.0237897811007617	-0.5334293299294749	0.0	0.972436509240849	-0.5340839458694073	0.0	0.9831235216293974	-0.7588543562074298	0.0	0.9913028789765457	-0.8773560561884977	0.0	1.0066901661284853	-0.9572141295053406	0.0	0.9779153493787297	-0.9420638846313174	0.0	0.989180486798654	-0.8799219730508132	0.0	1.0720833036882644	-0.5315638039559787	0.0	1.0548965103956802	-0.7512048684302537	0.0	1.0517397579927252	-0.9687937686962526	0.0	1.0387843421599585	-1.0303497611832153	0.0	1.0692998480510445	-1.0236726051657619	0.0	1.0496946546281627	-0.9913936673766173	0.0	1.0342653597222908	-0.2550639875068206	0.0	1.0473466803958966	-0.13545356098108932	0.0	1.0607970737739931	-0.19687437730298735	0.0	0.9459888981236074	-0.29787640157200773	0.0	0.9164309469620484	-0.42429410020801145	0.0	0.8778812120495472	-0.5327397411409515	0.0	1.1108073724432919	-0.3030072886030585	0.0	1.1443395823099205	-0.42600445125129077	0.0	1.2096643367133604	-0.5268765566082417	0.0
146	4.897468354430379	1.0243888626086661	-0.5310627920455038	0.0	0.9725330864849805	-0.532241749207918	0.0	0.9777152855205159	-0.7613881544234962	0.0	0.9881654807811835	-0.8782306031907551	0.0	1.000521545699982	-0.9609142000999679	0.0	0.9723633638278489	-0.9453042081604859	0.0	0.987250376748773	-0.8810919657271441	0.0	1.0738560026230215	-0.5298754146036068	0.0	1.0565288000591249	-0.7525227664599726	0.0	1.0519210242065404	-0.9695865280813398	0.0	1.0380133526360977	-1.0303015759941858	0.0	1.069007858810314	-1.0241091787473395	0.0	1.0501371171051936	-0.9920665339371182	0.0	1.0345824013558773	-0.24951467012454742	0.0	1.0481759290226917	-0.12878322815612012	0.0	1.0621272590868862	-0.19084756330821526	0.0	0.9451542014938947	-0.29351894201909673	0.0	0.91913803239446	-0.42339421258090476	0.0	0.884189099113453	-0.5365860189172668	0.0	1.1121738656414666	-0.29804518381657635	0.0	1.141917516928578	-0.4256134897017771	0.0	1.2025165842631258	-0.5335211351401931	0.0
147	4.931012658227848	1.0251096936085553	-0.5295534818603913	0.0	0.9728263465903824	-0.531386719150339	0.0	0.9715641383440147	-0.763114910641406	0.0	0.98242740727677	-0.8829901770073962	0.0	0.9911242559669042	-0.967489927941874	0.0	0.9635847289625257	-0.9516866472195933	0.0	0.982908323011624	-0.8871065512149002	0.0	1.0755352239452705	-0.5295308343270657	0.0	1.0577821669235183	-0.7548791210034507	0.0	1.0519509994712897	-0.9706539856802853	0.0	1.0372690868453738	-1.0297955842279016	0.0	1.0686317341488594	-1.0243557744147858	0.0	1.0504450509259489	-0.992776139653562	0.0	1.0343624669387024	-0.2445149128065284	0.0	1.0480236080046208	-0.12248278516388356	0.0	1.0623836111946725	-0.18515783908989378	0.0	0.9438511425536228	-0.28969117609229733	0.0	0.9210866128238011	-0.42302381056358807	0.0	0.8893620953339612	-0.5404641659666979	0.0	1.1128723478832028	-0.29338054811270187	0.0	1.1386165972909883	-0.42590636916216046	0.0	1.1934223514963873	-0.5415925632601868	0.0
148	4.964556962025316	1.025741864363057	-0.5291337921925451	0.0	0.9731727805735857	-0.5316450739876715	0.0	0.9656972048288118	-0.7643650195819655	0.0	0.9733989104503276	-0.8933536934638447	0.0	0.9784542478309162	-0.9780696238713289	0.0	0.9511361431295792	-0.9624534171853182	0.0	0.9750603193250438	-0.8997003874868915	0.0	1.0768939178328425	-0.530577820577168	0.0	1.0587016087374972	-0.7581534128876812	0.0	1.0517783934849936	-0.9719194617307623	0.0	1.0367272748494964	-1.029159589857752	0.0	1.068357438001735	-1.024573936520328	0.0	1.050597219088406	-0.9935837609345927	0.0	1.033635657479827	-0.24030615733000274	0.0	1.04705254307546	-0.11680947527447197	0.0	1.0615432929960076	-0.1799788515089198	0.0	0.9421057363039286	-0.2865417584255975	0.0	0.922091825978703	-0.4232777528770208	0.0	0.8931224829584337	-0.5442433818169828	0.0	1.1129382645621817	-0.2892979629259396	0.0	1.1345269755982366	-0.4267821583485579	0.0	1.1823369688120755	-0.5496914704150766	0.0
149	4.998101265822784	1.0259964355909283	-0.5297124980155438	0.0	0.9733261738610421	-0.5328425260406654	0.0	0.9610582581794165	-0.7657092036587617	0.0	0.9607929876258546	-0.910267446382316	0.0	0.9631524085108789	-0.9930385715748904	0.0	0.9352031838366853	-0.9780775354990335	0.0	0.9629511710807381	-0.9195450405447222	0.0	1.0777255853668362	-0.5327197579859282	0.0	1.0593857972260972	-0.7620329914398497	0.0	1.0514670615125583	-0.9732652740701796	0.0	1.0365114907401454	-1.0285789527258085	0.0	1.0683244628487742	-1.024807570971893	0.0	1.0506302023480638	-0.9944652198932992	0.0	1.032434585186938	-0.23688737867500695	0.0	1.0453902820866308	-0.11183876519317561	0.0	1.0596747317439026	-0.17528684024316185	0.0	0.94001392301407	-0.2840377492055383	0.0	0.9220776983907234	-0.4240040029906666	0.0	0.8955284184607972	-0.54776630263648	0.0	1.1124662740214486	-0.28583583896974674	0.0	1.1298704646223656	-0.4278513693895753	0.0	1.1690437210199094	-0.5563024425232578	0.0
150	5.031645569620253	1.0256765114642648	-0.5309896573031552	0.0	0.9730804704452451	-0.53471188558527	0.0	0.9580722342887886	-0.7677496333199395	0.0	0.9451080755017356	-0.9330360718279123	0.0	0.9463916316412312	-1.0114560713837926	0.0	0.9165985599270086	-0.9975395312642432	0.0	0.9466997397520626	-0.9453348889298733	0.0	1.0778941828884916	-0.535509462809087	0.0	1.0598120787816097	-0.7661852740538635	0.0	1.051095149867289	-0.9746474450245417	0.0	1.036610306770047	-1.0280772439599213	0.0	1.0685504892478614	-1.0249665532320242	0.0	1.0505110691663346	-0.9954013363739675	0.0	1.0307487647624585	-0.2341361472680767	0.0	1.0431008753444426	-0.10746919750850809	0.0	1.0569909563776152	-0.17101575628105684	0.0	0.9376173042635038	-0.2820850467537322	0.0	0.9209570356294305	-0.42497367883390763	0.0	0.8967646912981787	-0.5508781911241217	0.0	1.1114877803022916	-0.28286473452639227	0.0	1.1250111610722682	-0.4285488416207311	0.0	1.153377300380699	-0.5599653702507769	0.0
